<mxfile host="65bd71144e">
    <diagram id="G6_IzOxPFLvITdpuF8h3" name="Page-1">
        <mxGraphModel dx="939" dy="1882" grid="0" gridSize="10" guides="1" tooltips="1" connect="1" arrows="1" fold="1" page="1" pageScale="1" pageWidth="827" pageHeight="1169" math="0" shadow="0">
            <root>
                <mxCell id="0"/>
                <mxCell id="1" parent="0"/>
                <mxCell id="2" value="" style="rounded=0;whiteSpace=wrap;html=1;" parent="1" vertex="1">
                    <mxGeometry x="719" y="13" width="290" height="593" as="geometry"/>
                </mxCell>
                <mxCell id="3" value="ECStack" style="text;html=1;strokeColor=none;fillColor=none;align=center;verticalAlign=middle;whiteSpace=wrap;rounded=0;" parent="1" vertex="1">
                    <mxGeometry x="719" y="-20" width="40" height="20" as="geometry"/>
                </mxCell>
                <mxCell id="5" value="" style="shape=image;verticalLabelPosition=bottom;labelBackgroundColor=#ffffff;verticalAlign=top;aspect=fixed;imageAspect=0;image=data:image/png,iVBORw0KGgoAAAANSUhEUgAAApYAAAG4CAYAAAD/vKfRAAAgAElEQVR4Ae29368l1ZXn2f/L1Sh7SibLuHBlGf9osiUnxUAK7DSFquS063qwgU5sjS3QpJ1kZckGjboFaJSFKltMK0ulhGIaepQGW1UPgLBoKZ8x8osfkCwhP/Mn7NGKOOvEihVr79jn3Dj3nLjn8xDav9Zee8fen4j4xo6Ic/7dwanTiY0xgAEYgAEYgAEYgAEYOCoD/+6oDqgPhDAAAzAAAzAAAzAAA8IAwpIVW1asYQAGYAAGYAAGYGASBhCWgDQJSNypcqcKAzAAAzAAAzCAsERYIixhAAZgAAZgAAZgYBIGEJaANAlI3KVylwoDMAADMAADMICwRFgiLGEABmAABmAABmBgEgYQloA0CUjcpXKXCgMwAAMwAAMwgLBEWCIsYQAGYAAGYAAGYGASBhCWgDQJSNylcpcKAzAAAzAAAzCAsERYIixhAAZgAAZgAAZgYBIGEJaANAlI3KVylwoDMAADMAADMICwRFgiLGEABmAABmAABmBgEgYQloA0CUjcpXKXCgMwAAMwAAMwgLBEWCIsYQAGYAAGYAAGYGASBhCWgDQJSNylcpcKAzAAAzAAAzCAsNw3Yfm330z/+X/+NP3X/3mYHnH7/qVXfpj+q5S9fm4asfl3h62/f/tm+pJrK3/yOZd+1vTvh+mJv+UAzY8TY8PYwAAMwAAM7B4DCMtqwbN7k7feAaXCbSgsG38iPKcSls3Ynks/W0lY3pue+DcRvgjL9eb3pHDKfjD/MAADMDBHBhCWeycsF8ItJ/a2LixPp0dej1dU53iA0WcuDDAAAzAAA/vEwOTC8urFT9Kdy932xtnT6eCeN9N7Ju/OpTfTRRF0Pv/yJ+m9h58ePoY1dm35y+kN9Xfx5aF9USx+PX349LPpD08/lW5/4XS68ajEF9ujXx/46pU3dt9JN5b+ja8HvrPwI+X3ptuHOZ9ap2v3w68e50G3EJa5VUkVlvoYO3wsraueVgBGebJfixXL5SN4qfPT9LO/y+9zIyxzwnc59vn6+3QAs69wAAMwAAMwsEsMTC4sm50TIaji0QgBEZ2hcHQ2dzJi8eLDH6f3Lr6b3rv8cbpxTwuS5DXi1fioGeAbjz6Vfnf4bPrdA/cuxGQrBkdF3hceSb9biFJtpxWfC8H51VZgtn69TxGVraDVugcLEdr1o/4A+fyND9Nf/Wtp+5f0+WBcRLj951d0v117KgCtsBORadONz1ag9gRiaKeC0zx6b9owadfH5l3PnPB1tt04uv3AbnCTxFjBCAzAAAzAwKYZ2IywPPV0unHpEyf4ZJXx3XR19IL/cnojEKUyECIi71T5GAdHxOBAzIloDFYt/SRcfuCpZAWoiFRZ/WzsxMfhI+nyYj+trY17nzcetSuh4/339SdLi+gbiEh5PB2982jEZSgqZT9EWA5FpIjHnigd5WKLY0LfEKkwAAMwAAMwUMXAhoTlQgSalcdGFJp0K4RaAWofnTfxgrAcW/GsFVg9MaiwRMJysQK5fFy+eGy+jrAcPlbvHofro/na/m/MToRlsFoYC0sReyPvbOqjcB3jRYiwRChvjGHHGu3AGgzAAAwcHwMbE5YHp+wKZbSC2eYNhWJ5xXJov95gVQnLRlQOVxL9ymPPV2HFUoSlFaRHBX3dR+HFdlcVls1K5Q+bnzCKVyDjr8IRlutxW5w7BFXV3TRjCHswAAMwsDkGNigsT6flO5Vn303LD3b04ifvYQ5WMGVHd0dY9gSj9vvU6bSusDwQoVrxqH2rwK8iLHuPv+WRd/S4HGG51fk03NKPzZ1IGVvGFgZgAAZaBjYqLJuvvi+9mW6EH+3YFc0FkCJA5WvvHXkULgKy/x5m97W3XXnsCdDCiqVAF77beSr6qGdLB2mtsOyJSu1rJC4RlpxslA9CWIABGICBk87AZoXl4iOe7Ac35meEOkGpPyXUfejTfrTT/YRR905mZ1M/Uf2f+1HhKCJy+R6l+fjGvxcpglJtf/fA+cVPF7XvSja+RFianyXqbLuvsL3PXXm/svkau/l5odzPCC1+JkhE5cp2upq5eCdzUT/7dTorbTzWhQEYgAEYgIHZMbBhYcmdSb3gZawYKxiAARiAARiAgXkzgLDkbmh2d0OcdOZ90mH+mD8YgAEYOLkMICwRlghLGIABGIABGIABGJiEAYQlIE0CEnefJ/fuk7llbmEABmAABmoZQFgiLBGWMAADMAADMAADMDAJA3spLP+Xf9+/8/jwP/xF+vC+v0j/71f+PPmyv/iTP01SXirTulbNaz0ts35LZdYH8f48MR6MBwzAAAzAAAzsNgN7KSx/8x/+In3hf/3TRpmf+9zn0z9+6Yvpz/7kdLr+pS8mX3b7a3/elJfKtK71qfW0TP1Ke7kyOViknINmtw8a5of5gQEYgAEYgIGYgb0Ulv/PvV9Mb37lTHrqC3/WrFRaOHzZ//Xn9yyFXqlMfFiftp6UaV1ZwcyVRf2xfSMeQ8y4MC4wAAMwAAMwsBsM7KWwBL7dgI95YB5gAAZgAAZg4GQxgLDkZd3liiwH98k6uJlP5hMGYAAGYOC4GUBYIiwRljAAAzAAAzAAAzAwCQMIS0CaBKTjviOiPe7CYQAGYAAGYGD3GEBYIiwRljAAAzAAAzAAAzAwCQObF5ZPfJQOb39mtk/T2QePUWE/9GK6+c7N9HgGmMOnLqbfvvqt9ItMudwNtTY/SL99VbaL6ebXMv1/9FsLm9b2l49Gds+klwr94e4rGjPy4AIGYAAGYAAG5sDAZoXlg++nx25/lM4URNumB+nxVz5IN69dGKjwX1xZCMUrD6SbL+aFZSMqX3wgHeo+fO2BdCcQl40/a3fqvvTLwE7299y1t8M+bXos8M9JCQZgAAZgAAZgYJMMbF5YXn9tIOo2uUM93yOrla3tmYKwzJTJyuSV+8b3K2vHqmVvnlS0E44zxRgxRjAAAzAAAzvMwGaEZbNSaR9/d/HHrr7ggHgtne89Ks+tcL6Qzt7q/BzeHn+kLiuDb73yjGvP36lkxGNp0rKC0fku2OVWUhFcbgxL80DZCNuMJccTDMAADMDA8TKwGWGpF3wRmKUVy0aAOoEY5Z1qxef5J+zgRHm2/EK68voH6aUnbV4UX1VYin3hPUvd98KjcIG8Eb2vv5jOLe2jvpHHCQEGYAAGYAAGYGA+DGxVWJ657kSliiwnSO+6+mnqi0od4NfS+Vvvp7u0Xi+Ux81vpysPqW0uXE1YyruU8Uc5C/+yStl85DNi9+TN9BYf8bDi1mM2xyj5XFRgAAZgAAbmwcAWhWVJFMpjb30kbuPDQc2K01PTC0sRlXeeOlMphuTjnYK4RFhWjuNwzjm5MCYwAAMwAAMwsJsMICxP1axYis0qolIn+770y96X4pp/Oh2IsORROOKSFUsYgAEYgAEYOEEMbFFYnk7Z1cZJHoVP9Y5lKyqLj7+zQMiqZfxTRnUfFhkhmm0DG+5aYQAGYAAGYAAGdoOBrQrLAxGQg3ck5dG3f/dSPtTRR+PdwJ25/lnm3cvWpk68lVYsM4+z5bcsez83FNmVVzn5KrybR04GjAUMwAAMwAAMnAwGNiMsB/+20/1M0OAjnMB2YCOrdc3X4p0f+Tef4U8XuUkp/I7l8gfSFx/a6Ac3vX/haX4MXf9xx4U9YSnttkKy81N6dM7vWHICcayyIs2jMBiAARiAgRPAwGaE5Q4NzC6uDMpKavRvQIgtxBYMwAAMwAAMwMCcGTjxwvKgsGq5nYljtXI7486JinGHARiAARiAgU0zcPKF5Q6tnm56MvHPCQMGYAAGYAAGYGCbDCAsEZ680wIDMAADMAADMAADkzCAsASkSUDa5t0RbXN3DgMwAAMwAAO7wQDCEmGJsIQBGIABGIABGICBSRhAWALSJCBxp7gbd4rMA/MAAzAAAzCwTQYQlghLhCUMwAAMwAAMwAAMTMIAwhKQJgFpm3dH67b9jb+5lGq2df1Tj1UDGIABGICBfWMAYYmwRFiOCMx9Oymwv1wIYQAGYAAG1mUAYYmwRFgiLPeWgXVPnNTjogsDMAADMQMIS4Tl3oqKmsfgYsPJIz55MC6MCwzAAAzAgGcAYVkrLM++m+5cfjddrbXHbucFGcKSE6I/IZKGCRiAARg4GgObF5aNIPsk3bms28fpxj1H6/RWJn0GwvLM9c/S4W2z3Xo/3XWcAvfJm+mt119M546zzVJb8j/xhf6EwvIX/yO99c4H6db1v19+2LMV3kr7RdnO37TAzAzP8RxXHFcwMAkDmxWW97yZ3tvZVb6X0xuX3kwXTwhId139NB1ef20SKNa7KF5IV17/IL305G5dUB5/Jd+nobD8+/Tif/+39OJP+l+LrzceuzUO7APzAQMwAAMwcBwMbF5YXnx5i2KnBNHJE5bnnyjt74bLdm21Um8YCquWsbD8H+k59zHPcRyItLFhPpUHwh09HzP/nANg4KQwsBlh2axU6qPvfvjew083J7aLD3/cPh43wnOZd9k8LtdH6c3q4svpjeUj9U/SG2djEK9e9G2+nG5c0vcjn043LvXLS4/puz5JHfURt9u3/STpvrawaN/bfev10YzBqmA1K5X28fcy/mk6+6Dr5xMf9R+VZ1c4X0vnl37k0fpH6czIBVlWBm9eu9C7aD36pbPpnx+9mP7L+W+lr979F+kfH/nrJi15Uqb7au0+9yd3N/map7aaFl/P/2/fbPz83V8+ks7d8+X03y58u0lbn+r74FR+JRVh6fgYmeNuTKnHWMAADMAADMQMbEZY6gVKBGZJNGXKr140wrLxJauLH6f3rODMPGYXwdYXdKdTK+K8KFx1xVKEoffRDWrThtvXOO/j9N4l28dW6OZEci24IjBLK5aNAHXvXEZ5Bw++nx677URplKdz3ITPpJfeeTtdeagbD+33F+/6YiMsb3zjrxsRKPkiBv/vh/8qSZm1E6GowlLz/9PZB5YiVOxFnIqdlEsoolL8RT7Vh4jet155ZtmW5iMsh/OlY0PI2MAADMAADKzDwHyEpRWVC1EjK4Q9QXb23YGozA/KhMIyI5ClbS+SI+F7UKif738f+LKwfC2dd6JS/fp6Z647UakCUsRlboVTHje/czM9rrYmFDEoIlKEn7YpoRWMkha7GmFpbcSHbFJfBKmUWbGq7Z279nb4UdFQWP5DuvEOj8J13Aj7xxjjwXjAAAzAwDgD8xGWwYc2Xlj6dBmA6YRlsV0ndr3QbPq4aWH5xEfpsasv9ITdcmx6gjEvQA9OvZDO3so8Eh8RllYMars7JywXX4Pf+EX/wx0Rn9pnwvETCmPEGMEADMDAfjOAsDSra+WDIf8oHGFZXrHcCWFZ9SicFcvyMbDfJ0vGhvmHARiAgXEGdlBYyjuH0TuWw58GGgg6+dDHveeYh2C6FcvSo2y/QunTTf82vWJ5Kr8SOcmj8FPldyyPIiylrn6U4x+X1z4Kjz4sknEfPgqXnxviUXj+mBk/oVCXMYIBGICB/WZgu8LylKwCWhHZ/3K6gzMWgQNhear9EMZ/vNMIv8v+K/KhgBV/+S+/8yuW0k95d7L3vqeshAZCdzvC8nQSATl4HC6Pwf27l1Fe8xg88+7lYsU3J968GNQ59Y/C5R1J+eJbRaSm9atwqed91QlLvgrXMSfc75M988/8wwAMHAcDmxGW+hNB5qeB9Cd9QvG1tOv/FE9j2/OlIrQVkOrTC8nma+ylz8LPBMlKobXz73H6cmvbE8QCa79PTd96/lQ0tz91pH1uxezi54969nUHwODfdpY/EzR8H3JoO7RpoPM/S3T7s+IX502d4Hcs9SeCRBzq19tWMEq+iEMFXT7w0Z8OUkEp5RL/+wceWf5UkfrSMl0RFWGqZerzgN+xXI7vckyqX/+oYxC/jBMMwAAMwIAysBlhyYVrDy/m+ZVBhW0boayk5v4NKH4Uzj/vbGOeaJOLEgzAAAycDAYQlojg6URwsGq51RNFYbVS+jUUlpfSN/iv8Ol44NhiLGEABmBg7xhAWAL93kGvYjcUlu7vHMVG7QlPxt0088g8wgAMwMDmGEBYIiz3VjghLDd3YuGkzdjCAAzAwH4ygLBEWCIsg1VKKzo5Oe7nyZF5Z95hAAZgYHUGEJYIS4QlwnJvGeCisfpFgzFjzGAABkoMICwRlnsrKuyqZCleOoAo4wQLAzAAAzAAAx0DCEuEJcKSFcu9ZYCLQXcxYCwYCxiAgSkYmFxYXvzu4+lPv/AlLlQIVhiAARiAARiAARjYMwYQlns24VPcjeCDu1oYgAEYgAEYgIGIAYQlwpK7SRiAARiAARiAARiYhAGEJSBNAlJ010Ied7MwAAMwAAMwsF8MICwRlghLGIABGIABGIABGJiEAYTlMYP0s+s/Sn/8zZXF9r306rG1/1o6f/uzdLjYHrv6wiQArXUnKv/h/c7N9Pia+37u2tvp5rUL2+v/mv1ea6xoi3mGARiAARiYEQMIy61N1v3pzm+OU1h2S/F3Xf00bVNYPv7KB0cUhs+kl44gTBF4HQuMBWMBAzAAAzAwJQMIS4Tl8d4JHnG1UuFn1ZITobJACAswAAMwsDsMzEpYvnpLHyG34e+v359+9Wu/6vfl9KtfW7sfpV991wz4c99rH0P/+kL62SlZNexs7zxn7Izg7D++Fn/3pztN/b593+5K+v31LxdE29iKpd+PMX/9vpQOsvEVy/5j88PbH6UzZjyWvp/4aPlo/fD2p+nsg6fTmevt4/bciqgIwrdeeaYbl69+J/3h6WfTHw4fSbcffbaNP/r1dPCFR9LvJP/pZ9OHXw32bQWB2rT5zgfprddfTOei/SCvmw/GgrGAARiAARg4AgOzEZYiKr1Qa4WmFZatUOwLxEzer3+Ufv8bIzq/eyH9Png03YjFW/cbyBZi1AnLpi89u9MpyluKskbU2r5b8dSKyv5+jPmz9cvxorB88P302EIkLvsa5YmovPV+umsJn4jRT9Njt1qBuay7LJc+XUhXXv8gvfSk79/X04ciIkVQnjqdbjQC86l0+wunFwLzO+lGz4/Ul8fhkS/v+3RCWA7HJJ4f7BgXGIABGICBozEwD2H53PcGojKaeBGBXoy1dn6FUcShEZUL0RLVlzwvaAdtiyh1olJtXr01bGfZp0DINmWF/f3Z9e/1V2AHgmsciJKwPHM9IwxFXF5/bSGwX0hnb0WrmK24lJVL3f9+KGLw7XTlIV/+9fTh4SPp8mJfLj/wVPrdA/cufNybbh9GwrIVqXzE48eSdJ85xoPxgAEYgIHjZGAWwjISfMNBklW+3AqgrPZZgeeFZgtdrp12ZbR7ZO6FZq5e08esSBRxG/dX/HVfjnftal4snusPnLywfC2d761CWp9GTPZEprWRR+EZYdqIRoTlkNv++FHOeMAADMAADMyZAYSlWfErCkRj5x9xF+utKSy9eJ0SspMkLIeP1TkhTckKvuAJBmAABmBgFQZmISwP5IObzKNmu7N5gedXKH26hSZf30PlVhunfhQu/tw7nHY/jxrPC8vCimNvldKsXhrBfXBq7FF44R3LlR+F51Y//Vy1bb5V+T7mUceW+n78ScMEDMAADOwTA/MQlqfaj1kGq3jNBzdXzHuVTvAtRI+sMPYfH9cKy/hdzEjoDts4nSK7Dq64r1ouIncopuOPeqSO/DakiKeaL59LwvJABOTgcbgISfeIWz7eWb5zKSeN1qb88c7iQxr7VXgzR2u8Y1n7VfiTN5tx4V1MTux6bBHCAgzAAAxsjoGZCMt2APy7jn+M3lFciE19H1HCniDVnxtqfmZI37tsBZvW6exF/A3fcfxjuJrY99H48nZB37TNP2Y+JurK2370BXIHxpiw1J8B0n/e6YU9gXg6HfR+Rqj9+aDzT3Rt6QEpAtX6EZvyO5an04EXhPpzQ81PC7VfgsvHO81PEDVficvHO/KzQ4uvxBc3C7W/Y9mMCz8zlPmYajinOreEjA0MwAAMwMA6DMxKWK6zg9Q53gNjVFguVlePtoIoj8Fr/hKy9nH58Y4RTDLeMAADMAADJ5UBhGXvHUFAPxLo4WP0YEz9quWKc1C7WnmkfVmxT7QVzDNjyEoxDMAADOwdAwhLoF8fehGSt9tH5e0j8ei3LREciE4YgAEYgAEY2BcGEJYIy/WFJWPH2MEADMAADMAADBgGEJZmMPblboL95M4ZBmAABmAABmBgEwwgLBGW3GnBAAzAAAzAAAzAwCQMICwBaRKQNnHXg0/upmEABmAABmBgXgwgLBGWCEsYgAEYgAEYgAEYmIQBhCUgTQISd5TzuqNkvpgvGIABGICBTTCAsERYIixhAAZgAAZgAAZgYBIGEJaANAlIm7jrwSd30zAAAzAAAzAwLwYQlghLhCUMwAAMwAAMwAAMTMIAwhKQJgGJO8p53VEyX8wXDMAADMDAJhhAWO66sHz0W+m3r15MN79WOgDOpJsv/iD99tV2++WjJVvKNnEg4ROuYAAGYAAGYOB0QljuqLA8fOpiKxRffCDdvFIWlr+48oPUiUkRmWV7wOfkBwMwAAMwAAMwsAkGEJY7KiztZP+iJCy/9kD65VNn3OPs+9Ivr9zn8jiA7JgShwcYgAEYgAEYmJ6BnReWFx/+ON25/Mlye+/hp9PBqZfTGybvzuV309VGIPr8T9Kdiy8PBdY9b6b3FvUH/iL7rPj8evrw6WfTH55+Kt1+4DvpD038O+nGqXvT7UPJfzb94dGvD9vP+osnuCQsZWWzW63U+rJq+a30ixXb4QDT8SOEBRiAARiAARhYh4GdF5btTolgVPHYTXQjOkeEYGNz6c10MRBZUvbexXfTe5c/Tjfuaf1K3htnuzZqBvXGoyIiRVCeTgdfbQXm7x64Nx0sBOaHX239ff7Gh+mv/rW0/Uv6fNBPhOVq81EzZ9gwpjAAAzAAAzAwPQMzEZan09WLn6R2dVEH4el041InCPNwiN1QlIp9IzoDwZr3pW33wxuPPpVuf2GR94VH0u8OH0mXFwLx8gNPJRWWq/pVe4Rlf7x1XAgZFxiAARiAARjYLQZmIywPzr6b7tiVR59eCDkRoPbReRvPC8u+WF1vchCW640bJwPGDQZgAAZgAAZOFgPzEZan+iuUwxXMdlVz+E5lecXyOIUlj8JP1sHDyZD5hAEYgAEYgIE+AzMSlotH1/JOZfPxjV+FfDm9YVc0l+8q7o6wXBe+0qPwg+ir8K89kO7wVfiRP5pad76o1z/JMB6MBwzAAAzsDwOzEpbt1+Dvphvypfjgo53+imYD8fLrby9C2wluPt5pvjI/2oRv81G47KcXnj7NAX20+WX8GD8YgAEYgAEYqGNgZsJy8bjbfMXdn2j/c0MiKEVwynuX3Yc+7Uc79e9i9tuwA6s/N9T+tFDzJbh8vLP82aHTST7ekZ8dar8St3XL8eUPpC/+TUf/VSf+F5770i+N3Z3B71qW28rvH/UYGxiAARiAARiAgXoGZicsmdz6yWWsGCsYgAEYgAEYgIHjZABhuXwXE/COEzzagjcYgAEYgAEYOHkMICwRlnzkAgMwAAMwAAMwAAOTMICwBKRJQOKu8+TddTKnzCkMwAAMwMCqDCAsEZYISxiAARiAARiAARiYhAGEJSBNAtKqdzTYcxcMAzAAAzAAAyePAYQlwhJhCQMwAAMwAAMwAAOTMICwBKRJQOKu8+TddTKnzCkMwAAMwMCqDCAsEZYISxiAARiAARiAARiYhAGEJSBNAtKqdzTYcxcMAzAAAzAAAyePAYQlwhJhCQMwAAMwAAMwAAOTMICwBKRJQOKu8+TddTKnzCkMwAAMwMCqDCAsEZYISxiAARiAARiAARiYhAGE5a6D9Oi30m9fvZhufq1013Qm3XzxB+m3r7bbLx8t2VK26t0X9jADAzAAAzAAA3UMICx3VFgePnWxFYovPpBuXikLy19c+UHqxKSIzLI9B0fdwcE4MU4wAAMwAAMwsBoDCMsdFZYW5F+UhOXXHki/fOqMW76+L/3yyn0ubzUwbPvEGTsYgAEYgAEYgIEaBnZeWF58+ON05/Iny+29h59OB6deTm+YvDuX301XG4Ho8z9Jdy6+PBRY97yZ3lvUH/iL7Avi84t3fTH94yN/nf7bhW+nc/d8Of3dXz6S/vnRi80m8ZpJGLMpCUtZ2exWKxV6WbX8VvpFod9jbVKuY0kICzAAAzAAAzBQy8DOC8t2R0QwqnjsJrcRnSNCsLG59Ga6GIgsKXvv4rvpvcsfpxv3tH4l742zXRu1A/l/njufbnzjr9N/OvtAIyY/9yd3p/9y/lvp0S+dXYrLz9/4MP3Vv5a2f0mfD/qJsFx9PmrnDTvGFgZgAAZgAAamY2AmwvJ0unrxk9SuLurOP51uXOoEYR4KsRuKUrFvRGcgWPO+tO1hKKuTKiq1vqxgiuDU9LohwnI43uuOJfUYSxiAARiAARjYHAOzEZYHZ99Nd+zKo08vVvpEgNpH5208Lyz7YnX9gRYBKULSwoqwXH887TgSZxxhAAZgAAZgYB4MzEdYnuqvUA5XMNtVzeE7leUVy+MUljwKn8dBwcmLeYIBGIABGICB9RiYkbBcPLqWdyqbj2/8KuTL6Q27orl8V3F3hOW6kJYehR9EX4V/7YF0h6/Ce6vH64499dY7sTBujBsMwAAM7CcDsxKW7dfg76Yb8qX44KOd/opmA/Ty628vQtvJbj7eab4yP/rkb+tRuOynF54+zcF99PllDBlDGIABGIABGBhnYGbCcvG423zF3Z9k/3NDIihFcMp7l92HPu1HO/XvYvbb6A+q/tyQ/sSQfsAjoebJ1+HylXjJjy9b/kD64t909F914n/huS/90tjdGfyuZb/Pvi3SjA8MwAAMwAAMwMAUDMxOWE6x0/jg4IEBGIABGIABGICB6RlAWC7fxZx+cAGWMYUBGIABGIABGNgnBhCWCMuVHtHv08HBvnIxgAEYgAEYgC7UqgUAACAASURBVIHVGEBYIiwRljAAAzAAAzAAAzAwCQMIS0CaBCTu6Fa7o2O8GC8YgAEYgIGTyADCEmGJsIQBGIABGIABGICBSRhAWALSJCCdxLsu9onVBBiAARiAARhYjQGEJcISYQkDMAADMAADMAADkzCAsASkSUDijm61OzrGi/GCARiAARg4iQwgLBGWCEsYgAEYgAEYgAEYmIQBhCUgTQLSSbzrYp9YTYABGIABGICB1RhAWCIsEZYwAAMwAAMwAAMwMAkDsxaWZy+9nA4fGlfStXbclYyPJWO072N0X3r48s/Tw/eOjUOt3ZgfyjnmYAAGYGBODMxXWN77/fTjy99Pd4/dYdTajfmZe/lDz6Zrz7+82GqEwVQH8oV0uGz35fTji/dNcke01kEmLDz/bDo7u7mUMdyRfgtHly6Mz2GtnZ8L5bTm2PZ1w7Tyd5zMT3Xs4Get4zzkgLFkLGHguBiYrbCsXYWstTuuAd9+O9tbSbr74s+3KiyFha0K2yNc8LY9di23tezU2uVO9BfS4WTCsm3j7CWE5fbPPbn5Jp+5gYGTxMBMhWXthafWbp+gPupFf/2x2qo4mu1qpY73DqxayhjWrFbW2mWF9vTHLcJSOSI8SRdw9gWed5GBWQrLWoFSazc6Mfp4Th/pXv5+Onvx54P3O6W97nGzXx3rP5KT1bOlbe5i7do9fEhEYfBI1NmVH1WOC0u/H9cmWj0anw/pmxmX5zOrTI1I7OzkPdtlnzNj2ZQPylabk96cNSzYuTC+LuprB1Ju9mnQvilbsFVaUa1ecV3yYPt39BOwtH887zQvhGUwz92xasdOOYny2v1uhaUtf7nukX5W/B59PLt9wRdjAQMwcHIYmKGwrF25qbUbmUy5SHthtbhw24tsIzqccIjzfp5+fNmKzvZiZ301B9igXb0o9sVCI5hc/6K87qAVP3ohHu57KMCa/e232/kb+siVie+8cGqFWX8cgrxGbNi+tOPy48tDod/1IzPGC9EgoqNqTrzIaPrSH8tmzvV9yAUn7T77Pvh0O44RM7of5Xk187Bo95r2w/d7nbTsq+NM+9ULa+2KfWjnvdf/wbx349VjqmAnN3IdX/H49/al2Ecz3tiNv3PLGDFGMLA3DMxOWJbFSXeyr7UrX0gqH8nJxcyJSvXrH8GJcOhdCOVgi+qLOMj4VN8Hp/L9k/3vLqLduBw0K2h9MVTjT/p4eMQPb0pzku9vfx/9eLZ9HxMJIlRy+3w6Vc9JcGL0/e71T+bViLGe7UPPDjlY+L/74rPxV9cTCfxuvi0X5biMUcxTv16tXbkPMl/25qFtozd+Zi6W85cRldJW2K/ouDN+y33s7ze2jAcMwAAMtAzMTFjGF5zhZNbajRwIlRee3AWv6ZcTED3hoRexTDvid/m4XB6VeqHpfPfGIeOzKCyljj7uj0Lfvva/MpT9GYjqpq4Iw6GQ0P3pxqwvMrVcwuIciAAvCstAdEbjt1wJ7B7D91fBRMAYX+IjIywHc+vGOxRx2xKWbj/suPfitXajvMTzXJpjEY69FU7XRm9etCyaYy0j3JvVlR7DzDvzDgNHZmBWwjIvTPoCsdZu9IRSeeEpXfAOnPg7ygVO2uk9lne+e/uT7buIOCN+7EE0mTDoz4f2Kz8vMxCWGVHn5743v248rW1+LOKxa8ZQ+mCEqo7rpsNwtc9ys4jX2o33d0VhKeP8vH+doT+OvXnRvmePkX7d8f5izxjBAAzAgDIwI2FZuwpZa1cDQaWvwgXKX9B8upmIQn2dqDb0ojC+AIutFTFlH3YcvH9bdvR4SUzl+9vfx3D8Fh/IhKt8jYiQ/co/yg19ujkJbYJx7tmJDyMEe/voyvpzFI+11B+sWqtIMmG7ehe8cmFsatprbGr7WWtX1Yf+nGtfe+OnfqTd5WPz/Dz35sXWPeIqvPaNMGaWcWFcYGD/GJiPsCytzumFQsJaO1unEG8u5kYctAdJewGzF/lwtUZWmNyFq+4Cl7lABhdv6d/g8XJg1x3c4juzYinj0LtQdwdEVtQ0K3nyGLLgczG+YV+XYx+L+MG4BvsmNuWPdxZfjbu50DGpmZNh3xcM9D4IqX8ULm3HY5qZ+8V7goO5Xo7fYq6a+Qtem/B2lWnpY16w9/mosdMxL4eVwjJkNR6/mjku96nbV+wYCxiAARjIMzATYTkihpYXyVq7/ICEsCzFU/du3fAi2l7Qeu9E9gSpCKeuvgqERlxo/tI+8NXYxO8h6gpV17a367fd2bX9GeyLihPtl4QZUSZCvvUXC8th37oxGPgM2tVx6s3Lss3Wl9iMCqBQhPTHRduK56T9AMSOnYyb2v744neG87vcn3Y+Otvu34c0z/vt7W/Ddyy8vV3rz8//irwvj6e6NpuPyJarhuu2tajXm1tlqn88NPO0HFthoGDXvF/bMTc2x348SR9xPpcs4QeWYGBfGJiHsJSLTU7Y2BNXrZ2tQ/zIL+ruwsEigmogkN3cNiubR/yyfVv7Kvunoijfh1aAjY1Dvn7/xF/XZiuux/vW913bB+wYNxiAARiYFwPzEJZOIADZvCDb/HxVrqyFq5ZzGMvK/eM4ORE3SZs/XubAPH2EAxiYKwMISy7GM7wYi9DqHm92j0I5Ec31RES/YRcGYAAGTgYDCEuE5QyF5ck4+DiJMo8wAAMwAAMnjQGEJcISYQkDMAADMAADMAADkzCAsASkSUA6aXdc7A+rCDAAAzAAAzCwOgMIS4QlwhIGYAAGYAAGYAAGJmEAYQlIk4DEXd3qd3WMGWMGAzAAAzBw0hhAWCIsEZYwAAMwAAMwAAMwMAkDCMs1QZJ/SjnKXYav79M1vm0dG6+pm7NZ109Uz+bZeK7tTeZP0f4UPja5j+p7m/2cou2j+MjVzeXrmI2F69aP6tk8Gx/rQ1S+Tv116vi2xcfY5utsOp3br1x+rj/W3sZz9pvKr2lbbTSM+lIqU/saG7W14br1rA+Jr+snqmfzbNy3adM5u1y+rUt8uOKMsKwQlhFctXkRdFJXNy1Xfxpqfin0tj5dqpsrW9dHVM/n+XSuD5vIn6rtdf1IvbFtqv1et49TtD9V2+v6ydXL5dfu87r1o3o+z6dtn6TMb77cpmvi2p73a9NjftRHzm6sXOpFNrYPGs+1EeV7nz4d1fF5to6Ne7tcWurUbjkfkl/TtrWxcevX5/t0bVvWp8YjX1q2Sriun6iez/PpqF85m1x+5IO8TmAiLCuEpQDjAfPpyMaCJvZ2s2W+buTb2/s6Nm3byfnyNjXpqA+aF7Xj83xa62461HY1HGtP7Nbdcr7H2q4p931at61cvVXyfV9q0pH/mnqRTc5XlC954iNXZvOjtsbybH0fj9r1eT5tffiyKC15utm6UdzX9zZj5Wo/ZjdWnvPj6/m01tNQylfdtG4utG3aeM7e50d1avOsr6iOLZd4rY3YWVsbr/Xj216nnvZjlTBqV/P8fkR9imy0fmRfW2btiHeiUsZi1sJS/vu55n+Ra+3G4LCA2rjU8+mSr8jW5tl4zo+1sXFvXyqztmrnQ2tTims9axPl2fLjiPs++HRtH3w9nx7zI/ZjW8mHb8+nbd1SmbXbRHzVtle1lz5HdSQv2nQfS2VqE4Xalg8j2yhP69myKM+W27i3tWkblzo+bf1MUW79SVtjm7XPxX2fx9I5Pz7f+/HlubSvJ+nSFvnxPsSmNs/6s3VKfbBltr7GrR+fZ+vauNppaMtq41q3FIovKfdhqY4t03pjebbcxnP7ojZRuZYR9sWkHY/5Ckv53+fL3093j6041tqN+THwywBaoG3cDm4uHtlHebn6q7Rf49fa5OJRX8Q22tRWfXkbLd90qO37dnL53k7Saquh2mhaQ83PhWN2q5arvYSlLdefqfJLbWtZri0pt2VjabH1Nlo/ytc8DdW25CdnY33YuLXXuJRHmy2XuLfRchv6tjSdC21dG1d7ybNxtZG8KF/LfThmWypfpaxkq30Sm9pN6+RC257GNczV8fmRfW2e9RXVseUSH7MZK6/x4du06Rr/1t7Gbd1c3NprXGyjzZZL3NtouQ1tu5qveRpqvoRRni0n3orN2QrL2lXIWrtVgVgFMLFdd4v6pb60rNSXsTJfHqV9nrZrQ2sjcbtZu+OK2/5EbY6VSx1rY+NjZdqe1Fl3Ux8altpXGw29reZvIhxra6zc98na27i38+nIVvM0tHWiPC2XMl8epX2e1rehtZG43axdLm7tNe5tJd/nldLe3qZzbXh/to4vk/S65b6eT0dt+bx16mifbV2Na+jbyaXFvnaLfER1IzvJG+ub9xX5UR8aRjaa523G0lrPhlJnrF5kY31o3PrROhqqTSm09dVO8zTUfAmjPFtOfNbC8kI6rFmtPFVrl1/SFZBW2WrAiuCM8nK+tD9aXqoblfn66kfCyF7zc2Vabv3k8rzNJtJRP2vztD/eftW0+pkqHGvftuNtbdnUcWlrbFulTdt3Gx/zEdlqv6K6U9iL31IbWu7bj9r2Nj6dq6P5Gvp6Pu3tfFrtc/m2XGxKm9pGYeQ/ypO6tg3ry+avGrd+NK4+tE2br/GaUPx4u9o8W8/X0f5pKLbWxsZtmc3XupqnobW3fYjipTq2zNeVslx5KT9XlutzyT7qU5SX85HL9z72PT3LFcu7L/48/fjifYOD109mrZ2vt266FrrIzuf5tPZJ8zWUfBtXOw1LZVpXbEqb+iqF2o6G6tvWsWU+v9R+qSzyY/M0Pta22m0qLO2DlpXaVhsb5uzFJlc2df5YW2Pl2p/ILspTex9GtjbPxqWuT0f+xKa0+TpRWtvRMGrblkU+ojpR3pgfKVcbG1+lzZztuvm2P+v6sPXUn82riWs9DW0dyfObLffxnI8aO2vj/di0xjWUejZe8mNtpU602fo+btvJxX0dn47a9Hm+TpTW9jUUGxuP0taPt/X2vtynrS/i3QLdDIXlhXT4/LPp7Og7kbV23WAcFYxa6NROQw9zlPZ5pbp2P6ydzdf4UcutH+9rLK11jyP0falpU+rUbLW+rJ3vj09bW4n7cpu28cjW+5oyLW2PbbXtHWU/cn2wbVv/Nm5tNH7UcuvH+xpLa10b1tYRO28rfjRPQ+u7Nq6+1wlzbRylP97nWL+8vaZtH2w8Kte8UljrI7Kzfn25TWtcQ6ln45qWPLupf2+r9lpuQ1t/1bj1Y+NR+6uUq632R9MSet8+7W3Vhw29jaZLvtSGcIZfhdeuQtbaTQlBLXQKsG3b1rVxa2Pj1sbGrY3ES2VaLjalzfv0aa0b5WveWD/UblPhUdrP1c3lR/sgtmNbVE/zfFultC9TH5sIx9oaK7d98rY+bW19PLL1eTZt496XpKV8bIvq2Tytb/PUt+bV9EPreH+atqH6taFtw8dtXR+3Psbi1u+YrZb7Or59m9Y6uVBtS+W5Mpvv+yRlUZ6t4+Pal5rQ17Vp365Na9yHtr7G1UbTEtbm2To+Lj5082Vjaa1XCmt9eDvxqXk2rnk2jMp9nk3buPVDvL9AN7MVy9pVyFq7/mDk4BCYarecD81XP5q2YanM2klcbDXPxjVPw1KZ96N1bFiqL2VarqGtq/5zZd52k+mj9sHX9+mxvnv7sbT3N2Zvy23c+5k6LW2Nbbk2x+qVyr1Psa3JU5vIXsskPEq59rvkx9rYdn1c+6GhLfd5Pm1tNZ6zyeVrPR96e5/29jYttrr5fJvW+JhvLVefuVD9lUL1ZW2iPFvu45F9bZ715etI2m5iqzYa2voaj8qsnyiudXOh+vRhzt7naz2fr+lSuZRpuYZaT0Nro3lRGNWP8rRuqUxtCGe2Ylm7CllrNzUAJeikTMs19O37fJ+29rbMxq2NxEtlWi42pc37jNK5dny+T0e+NpE3RbvqQ8NV+il1xraSP9+mT9u6pTKx037YOuvGa9pax7f61XDMR2QX5amfUpnYSPnYpr5KYa4dn+/T6lPzNdR8CX2eT1tbjedscvlaz4feXtLR5uvZdOTDlmvc29l8W2bjaqNhqUxtJIzsJC/abD0bz/mwNrm2rI1t0+b7eNSetYnKa/OsH43burm42uZCqTe25erafNt+Kb/WTnzkbMfKbPv7Hp/RimXtKmStXd1q5SqAlIC0fiI7zdNQ7G3c1vdltXbeh/ezTrnWifqgeRrWtKf+pg5tH47ie1t+pF2/5fZjrI/qJ1d/LF/rrxOO+ZZy33+fjnxENlGe1i2VRX3QehqO1S/ZaV0NS+2pjYbqN6oT2Vj7qI6W19RV28jPqvVX8VHrW+xKm+1/Lh61FeXl6kf7tUqe2up+RO1omfbLh75OVK551jbK8+XeJkr7POtD42M2Y+UlP1pXQ7G1ca2by8/Z5uytP+KtrpqPsHzo2aovwQ9q7UY//lldeJaAtMB5u1za5+d81NrZ+lPHfR9yaZ8/dT9y/o7artRXHzaea8/na51S6OvYtLateT6t+RKWytSuxkZtx8Kcr1x+yV+uTi5ffUl5tGm5D8f8eft1076dXNrna3uaL6FuviyX1nwbqj+bJ/FcvreztraOjUd1ojxfx6e1Ti5fyzUs2ZXKtL6EkV2UZ+vYeM42yo/y1Jcvk7RuaiOhzfN11M7aaB0bWjuN29DX92U2rfFSHbWZIvT7nEv7fG1b++lDLfdhzo+32/f0TITlfenhyz9PD987JvZq7cb8dOUeuLF0CSiF0oYa9/W0HZ+vaVvPxn15rkz9rxqqfw3Vv4aSb+Nqp/m5Mmu3ifi67Uq9XN1S2dg+5HyO1SuVq08Nc7Zj5bl6Uf6Yr7Fy9Sl2Y7al8qjM52laQ21bQ8lfd1MfGmobGkq+jaud5kdlkqebtde4ltlQy3Kh2EqZrVOKez9aX/M1raHm14S+jqRzW62/XH3fVs5fZBflrVJfbK0PjWuY8+Xzvb1NS9ymbV2bb+PaL61rQ1u/FPf+xmxtG6vEvV9tV0Mpt3Frr+3YPI1HdXyepjXUuoSdTvJjMQ9h+dCz6dqlC4OX8/3OyGplld0GViulLzXg1djofpVsbZmNa93a/lj7deO59iN/q9hG9dfNW6VdsdWtpj21jdqwZbXxmjZzNlEfcrZHza9tq2SnY1Lbl5KvGh9HrV/Thtqs0tYqtjn/NT5qbNS/D3N1JX9s876idMl/ZO/zcvXFrlRm/UR2UZ6to/Fau1X6o759GLUV5fl6U6e30abuwyptr2Kr/m141PrW1z7E5yEsNyQE92GC2cf8XRVjw9jAAAzAAAzAwLQMICwRreMrwYwRYwQDMAADMAADMFDBAMKyYpC4m5n2bobxZDxhAAZgAAZg4GQygLBEWHIHBgMwAAMwAAMwAAOTMICwBKRJQOLO82TeeTKvzCsMwAAMwMAqDCAsEZYISxiAARiAARiAARiYhAGEJSBNAtIqdzPYcvcLAzAAAzAAAyeTAYQlwhJhCQMwAAMwAAMwAAOTMICwXBOkdX8wdd163NmV7+y2Oa5TtD2FD2VkXV9j9cbKtf1dCdftb65eLn+b+2v7ZONjfVrFdsyXlq/rM6pn82xc2yIsnw8ZH8ZnmwwgLCuEZXRiq83zkxvV8zarpMXf1D5XaX9XbLc5BlO0va6PqF5tXjR3UV21K5WpzS6F6/Y3Vy+Xfxz7nGvb5tv4WJ+srcRz25gfW2592vyxeFTP5/n0mE/KEVYwsD0GEJYVwlIA9Sc2n45sIrBtPYmPbd6Ht7flvkzT1mZOce2/DXP9F5tc2SbztV0N12nrKHWlPV/fpyObXD+juqvUz/ndRn5uX0p9KdUplZV8TlUWtW/zbLzUZq1dzofUX3XL+ZL8qD8+z6dL/ijbnqBg7Bl7YWDWwvLspZfT4UPjE1lrN3ZQ2JObjUs9n875KtmVytRfySYqi/LU166Hvu8+bftfKrN2U8Z9mz4dtSU2626RP82zbdu4lPu01tGyTfTHtrGteGm/oz7lxkFto3ItO47Q7k/UF5uX64/1kbNZNV99+rDWj9az9lGeLSc+ft1jjBijbTEwX2F57/fTjy9/P909tuJYazfmx12g7YnPxqOJlPJo87ZjfsS+ZBOVRXm+3V1N+75rWsLSdhz7o33xbeXyvZ2mV7XXej60fnJxX+ckpWWfa7fcfttxUxvN01DzJYzybPlxxG0fbDxq25bbeGRbm2f95OKRL7GNNrVVX95GywkRTTCwuwzMVljWrkLW2q0KqZ74pqxX47NkE5VFeav2eVv2vu8+bftVKrN2R41LO2Nt1dhoPyJfUZ7a14Tr1Nc+2zBqK/Z9X3r4ciwU1N/hQ2M2z6azg5s7X0dsJG9oG/WrNk/3s2RfKmvru74ub3ovpMOeiLJ9d3We/3l6+N7VLha2Xzau+5QLV7GNfEh97yNK+7ycL81XvxpqPuFqXDBejNc2GZipsLyQDpcn7hJAtXZ5H3qCqw3HJlP85GxKZVon1w8pj+pHeepr10Pfd5+2/S+VWbt14+LftqHpKNQ2tEzTPrT+bFku39pIXP3Xhr6+Tfs2bToXt/UlfvZSLIzuvvjz5SsrNt7VD8SiPGl43r3qssi79rwVZ+2xa/uofmvzxuwjP1JnmC8iMh6Dg4eeTdd656xWcP744n3d+SDYZ2nDbtpXDW0fbFzLo9DaWd+5uPWhNjZP49av5klYqqPl1j6X521I569bjA1js00GZiks5eLUOyEPVjpaqGrtppqA3InV+lcbDaMym+fjUT21icqGebqC0l4AZUVXbJrt0oXuIrcY0155Y2cv6sbXxWcXfqTcrMQMfJqyRbu5uVz2S/t3RFGu47QLoe5b1Bcpi/KPkjfm05fbdC7u+zOlsMz5OjglzFkGNy8sdT/tOEieT0tec7wMmG/zLediZ9PaxkEjLof7Z9uTdmu2pU9zftR6UZltI1du89VXKbT2ubjUlzINfTxK53yRj6CCge0zMENhGV9YhjDV2k03CfbEOOxPdwHM2eXyra+STVQW5Yk/uXD/+LK9uLWCb/RjqObC11+VacXn4mIoKzPPq1/v06fbMcldjH3fbdrGZX982o7ZrsW1rzaUeGk76j5oWzk/Udtqa+vauJZraMVgvDJ5OvXyH3o2FlciHnure+PHaNSv2jztv9hHm5ZLaH3a+NKm4d8LQzkX2WOmfG6S4yE6DqP2bJ6NL/vjRKXfB2835sPaj9mOlasvsfO2Y2mtSzh+bDBGjNFxMzA7YVm7CllrN+WA+5Oh9x2dQK3NWH2xLdlEZVGe+AlXTEQ0Bqstto8S74kD/whUfBhR0LPNCgnx+ezg/TLf91Lal/k+T5GWNlbdfLu2nzZu7XL51mbV+JhPX27TubjvQ3uD0Y1RJI6EB/GnW3bVzjDk24nSto9aXpu3ir31aePq42CxWt/bd/8YfOw4yxwnUXs2z8a7/rQXVVtm4yU7X+bT4mds83V8WutH+ZpX6q/aECKeYGB3GJiZsCzf6Xdg1drVTYSe/GrCrg+db60nZaWTZKlM/ZZsorIoT3zZ1SX13TyG88JysQIpfuxmL5w9XwVh6UWF9Sdx6zMaK7FZ9tWNpS+zdpuMH6XdXN1cfrQfYlu7RfU1z7dp07m41tXQctC7oTCrZr38jIBqOFxDWB51HOx+6j5FeWNlDeem/4MVyImEpe+bT2s/fViyK5Wt4kdsS76kTMs1jPznyrwt6e56w1gwFttmYFbCUk7Y4QqHuXDJgNbaTT34NSfBkk2pTPtqbSSum5RrmQ+1rg2tCFjm+wte+Fhv/RXLVedF90P759OaL2GpTMvHbKy/mvhR/eXq5/Jr+pSzGfMp5X5TX7aujWu5hiFTwbHpbyCkfp+N7T0K133RsLS/2TI5jvTRdxOPHo37vO5iOBCiizH07Y2ldR986OvZ8lKZtZO42I5tvk6UzrXp833a+tJ+2DziHVOMBWNxnAzMSFjWrkLW2k0PWunEp5NasimV2fq5k6itb+Na14ahCHDCMrQ5yqNw8W9Wcmx/orjupw0jO8kb21/1kau/an6uvVx+5D9nm8uPfNTmjfn05T6t7eTypTzHi9aVUATkuLBsX9WI7KyvsXipr1HdyD7K07qlMn3VRPb3mn8KkHsVRQRkKETbc5Vtz8Zr+qM2EkZ1tbxUpjYajtmOlZf8aF0NxdbGta6GUlYqVzvC6a97jClj6hmYj7DMPTZzKyLysx41q5p+IKZI15zYSjalspr+rVI/FAFOWPZXkeTg6b7othf9ni8nHr2QiC+08Uc9fn982o5JqUztamzUthSO+RkrV985u1y+1lsnHPPpy31a28zlS3mPA39cLtKeB/Ubs2Y/eFmcvDOr6OrHhqW+WjuNi320abkPi/6bfrYfyNljpfMhN8D6kdti3xpROXwlROpoWxp2fla/qJV8lMqO0maprm8zl/b53udYubcnvTo7jBljVsPATISlCI/gIjO4eNXa1cMhJ6tVttyg60lPQ2uneRraslXidfXbC5rYyqYivBF8uq9mVTH6IENtf3zxO70ff258LS6O+luDnW33e32ap32QML74js+T1JUx0jA3XmPluXo+X/zUbr6uT9f6Ubup61t/0oakfag2ufy2vLvh0L5e00fBy2M0sumPpbKobbY/LdS36f8WZJkP7XPnb3V770PTGuZ963GWf+Rtb9TE33DM2v76tlpbNy4Bl7m+eX9ip3kalurWtu/tvE9tS0Pbj8jW2kXlPo90mXfGh/HZFAPzEJZy9x88ThoMSq3d8mI3LVilE5/0tVReKhvsZ6b/U/iobWuX7I57v2vam8pmqnEe648tt3Hbfi7f2uxSfFP93ZTf4xq7XP9z+Zvs1yptrmK7yT7je9rrJuN58sZzHsIyI6QA8uQByZwypzAAAzAAAzAwXwYQlojW3k/4cDDP92Bm7pg7GIABGICBbTOAsERYIixhAAZgAAZgAAZgYBIGEJaANAlI275Don3u0mEABmAABmBg+wwgLBGWCEsYgAEYgAEYtNm9MwAAIABJREFUgAEYmIQBhCUgTQISd4nbv0tkDpgDGIABGICBbTOAsERYIixhAAZgAAZgAAZgYBIGJheW//sPfpjOfOVc+tzdX2FjDGAABmAABmAABmBgjxhAWK4x2fJDvSdBOO/afkzRnyl8nIS5HdsHxokb3zFGVimHp93madPzo/41XIWdo9raNm38qH5XrV/TttpoGLVRKlP7Ghu13UaIsERYVotkgXnVbRWopzhYpvCxSp83bev3Z2z8a/vj/dbWw263BcQU87MOG+vUmaKv+Kjj0c+PpKNt3fG0/m18XX+r1LPt2XitD6lTu5V81rRtbWzc+vX5Pi22UZ71UWvj60yVRliuKCxrJnSqydm0nyn3ZQpfq/gQ23W3TY/r1P5L41Iqk36sO0ZjfqfeR/zVCYRNj9O6875uvU3vD/5jERLNV5RXO35HqVvbRs7Otm3jOXufH9WpzbO+ojq2XOK1NmJnbW281s8qdr6fR03PWlje/8OX0+PfHD8h19r5wdTJXSf0vnYx7WE9Sh+n8HVUH0etf5T932Td0n6VynJ9WqdOzhf54+eftcfomz9N157/abp/xZvfdds7ChdHqbtuf6lXx140N7V5doylzqqbrb+JuN+Psf5FffA+xKY2z/qzdcb6oeW2vsatH5+n9XyodlEY+Yvspsybr7D8j5fST356KX1p7KRbazfmJwPblJOxSV8exFJ61X6sC66v59PH1Y9V29kV+3XHa916u7Lfu9OPb6fHm4vt8+lb/7HuIr9S33dUWAo/tdtK+1txDsbfapzZYz0X1zG15Zpnw1J5qcz6mDpu29W4hrVtRfa1ebaNqI4tl/iYzVh5jY9V2/T2U6RnKyxrVyFr7WoGM5r0KG/oSy9AuROyXJhGbCIR3Vx4Op8/OXwwfe6bP01N6E7SUT9r84b70z+5RX7G6ki5r+fTNT7URuqWNrVbhnLDYeosx8yN6bUffrt7B9XVuRbNiRv3ZXsbyF9nvEpjtI6/Te7fXHzf/8MNCcsNMJMb01XmPrKtynPHzyaOuS8dPh+e/2S/pUz6Odi2fBzn5mQsf4y7wX6aj06jMskrtVkqL5WVfB6lTPdBfWgfNNT8sVD91ISRr6heZCd5Y33zviI/6kPDyMbnrWLr666Tnqmw/HZ6vOpkUGvXF0rRQOYmJpc/9PFg+tZP48da9gRh452P4X6IYPbCpsl7/uXwxBr1szav68dwnMSH+tGwZG/LvL368qGtk4t7X9YuWyYiMsORjOXywicX+EZw9gVEe6GK59S2v058bAy0XHxn9y8QJiXbUtk6+7AvdeJjdnis7PJ4rDL3kW1tXnMcbfCYKwnLZvyjG+/CeWCX52wV7vz8+LTsZ5Rn979U7st82vqZKi5taDsa1uyHb9/W1bLaPLWP2hUfdvM2vg1Na6j26kPTEvq45uVC6zNnM2X+LIXl6MljMfC1dmMDaifW29ZP2ITCUu787UqaERC5fY76WZvn91nTWl9DybdxtcuF3tanc/V8vtQr1c2XtavEw/d0Jd+KSJ/uRIOMd29V08yF7+e6ad9/TWsofm08147YlOxKZY1Pt5r7+DdzTEt+/6T6+DeHN0efu9uv0vdFeu9GadB2NwfL/XU2U7yfqH3QsfvJ4bcHN4jtBd7tc3B8el+5/jVMLS9K/TFp97VrS9jt2WdE23KMMnyOzr2pF9nW5umcb+qYy53/lvsfCcu7v5J6Is2trMq+9W4ydSyMXVtuePbzP8amljfzZ/w8P/yOoDffS07a4y3qZ+3cRHbLcVucY8TGblru6/q02k0Vqn8NrV/J85st9/Gcjxo7a+P92LTGNZR6Nl7yY22lTrTZ+lE811ZkO0XeDIWlHHTRydZfaGrtfL1+WifEhtHE2rx4YvoX4d6JTE9U7gQnJ5DhCbi9kET5cbvt/mj/rU1tnq2jcVvXxqXcp7WOD72dT3v7KK11JCxtUV3Jay720UXAXqDlpO9tlnM2DWe5/km+7mMp7su8P/VRGiO18XWbtIyBHZO7Vdz4Y7HN7/O5sLX1m4uyFe9fSZ+L8kQI/PT5sO1eG4P+Zfwt561/nEf7LGz4C3UrDvv7rIKx6080BkF70f72+ldmqxFRMjaGzajP0b75vOLc9/rU51H9RPWjPLFvxsv0ufHh52/NY24SYen2N9vnhV3T5g9/mn5ibkZ7526/b1IvnHu5+Xq+56e16/OmY567hmi5hLk5iPKjvJIva2/jpXatv3Xjti0bV39RnpZFYWRfm2f9+To2rXENpZ6Na1ry7Kb+va3aa/lYGNUfq3OU8tkJy9EThz3Y5Z3D4CRRm2cnw8Zt/Vy+tWnjeiFWcNxFddFPvUiJX9m6i1V3YRKbKH/YZlcn6mdtnvfr6/m02Ed56/jxdWzatmHj1kbipbLoxO0vzr2LRMBTzQne92mVtPZfQ607lo7sfB21kbBU1jzC9GIgGIuxsdL2smMmF1zbTnRRbtqV40kvuDbeMd+29e30uPUX9Fn71AszK1s9m4Wv8Hj0+5Fptzxe48LSisrl/loBn2nX70dx7p0Psa3dfDtNuhFVOnftfK1/zMkYlfrTbyd8B71qrqIV97bvMoe51efPNTdgrg/L8fRsyr4Mrws5RrLH0MJ/NEc6H1GZ5Gl5FPryXNrnR76myovaivJK7Yl97Tbmx5bbfmjch9Ze42qjaQlr82wdG4/q2/Kp4zMTluUTbTc4tXb+IpRP5yYml9/1RX32L365k4LNz59Q1hOW0teabdh33YfVAB8bG1/u06v0o1S3VNae+O3K1JCd3Dxo/+ycad6UYa7/uXzbtrfx6ZKtLZN4ewE1DAWCrW4s8hfpwYW4IPC6tmTOTL98fA2hNTbndmy6fnTHSXPD4sdHRLLvW+bmsfU/ZNG2G/exNLamf0tx0+aVuLBtSjyyrc1rfbU32d1q8HA/433r+h+O+YLRzm9nv9yHcA688Gv7N5irDEfS13ybq7AZz11uLHJjsNzXzFytMoclX37ONa2hrbupeNRWlFdqP7KvzbN+fR1J201s1UZDW1/jUZn1E8W1bi6MfOZsp8iflbAsH8DdSaTWbpUBzE1MLn/ouy8sh+Vt/3MnC7sqkjvR5HxKftTP2jz1G9nnfJfyc/5y/tW+FErd0laqK+Opj3mbeCQIfN7ywjy8KEpb2pdSu7VluXHJ5Zf8ar9yYamuL7PjpmU5frW8DeMLaFvmjpNqYenFQXc+6Lddl7/KMRbus18FawTNsI/ldmK2dH/iuqWxLe97LU+RXW2e7fvUx5z4ljHJi7z2I7xi+eIVj6FNflzLbZbnUMejDeM24nl274Uuz0flOdb2Vp0vqefr+LS3icrVJlem/asNIz+SF205nzkf3j6ysza2TZvv4zV+auqM+VEftXZqP0U4I2FZe4DW2tUdgDrIucnJ5Wu9LnQXzMyJILxILd5LWj7+lotW5u65a298/+r7Pjyp2HZW8VOqt64f8VmqWypr+yPMyCOodqViOc7LOdLy4ZjKSX/4OHK3haWdAxsfHye//zJe/Ud35YtsVz/H+WClr+pRePve3nDeuvbsflbFpd3szUTfb7gvTliGNgshlO93+VwWC45YnNTsc+38R3a1eV0/9Jia7pgT36P8FW5Umr65eev1N3POHWvTLgp0/voMtfnx3MXzvJqwlPmxc2Tj2qcoT8sk1HIfqo3ka5m113INvZ3mrxPa9rR+lKdlURjZ1+aJP7HVLefflqtvDX0dzddQ28jZ+Xyftn582abS8xGWYycEFQG1dmpfGeYmJ5c/nLAJhaX0ObzwtSfp4d12dBLrThTDvsb2Obv6Mej79fV8OtdelF+qWypTX3Lyv9a8OD9cVWpsmhWnoYjKv1s1zfhq3zXU/q4blvzkyzIX//AGRwRD8KqGH7+wrrTTH+PmnbjBxzvRB2wqVPqMNcdJRhCUxzBzLEm/3f6FotEJlKH4aP3LmO+KsJTxyDPQjWtkU5tnx3wTx9xwnLt+N22PXh8CMd+wO/x5N92X0TabXz9wXOs5vMfmasJy0K5jU+ZEN+2rhqvOl7cvpbVMQ23ThqUyazcWj/xEeTk/OdsoP8pTv75M0rqpjYQ2z9dRO2ujdWxo7TSeC3Nt5Oynyp+JsAwuOKEgrLVzJ5vQV99GJ7s27E9Qe7Ht1/UCJrLp4JS6/gIkJ5a+z6FNvx/DfSqV15ZJH1ax9X2uTZfaiPqgeRqW6jcCRE4GpVWqxYl72d/eRWH6sfX9XrZrTlpRXmk/vU+x1TwNh/U7EdRvzzOsYxDYR2OlF2yzP57xRlgufvi/13Y4T8ExFLVbcbzrGDTix/SvfyPRb09v6HrHpWnf+5J9VVut235M1j/uu/1WceLGV8eiN565udE5yod5Dto6XX9y/ezydRzDUPur/Y/mZYVjLmzD+NSxtv1fjruxG8xBM4c61924Rv5a351N1yet342NvgrQ2OhYNKzF8zzsq+Mg+PDHz6Xd91K863c35z5P074NyVffamPDyN6WrxKPfEV5OZ85W5uvcQ1zvny+t7dpidu0rWvzbVxstJ4PbX2N+7qafxzhPISlHHSlk4+eFGrt1H6FcJuTtCkQptqnqfwcZT9zfcjlH6WtOdfNjUcuf+v7OrrClBdIW+/7CueXOfW1lpVauznt+z72tTSP65ZNNY5R+1Fe1F6tndRdxba2raP6jNrZlbx5CMsTeoLeFQjoB+JkZxlAWFY/DdjZOeT8zRzCwF4xgLAE+L0CnovvfES0f3Rc9dSC45njGQZgAAa2ygDCEgC3CiBCbz5Cj7lirmAABmAABsYYQFgiLBGWMAADMAADMAADMDAJAwhLQJoEpLE7GMq5y4UBGIABGICBk88AwhJhibCEARiAARiAARiAgUkYQFgC0iQgcRd68u9CmWPmGAZgAAZgYIyByYXlxe8+nv70C19KB6dOszEGMAADMAADMAADMLBHDCAs92iyEfvc7MAADMAADMAADGySAYQlwpI7SRiAARiAARiAARiYhAGEJSBNAtIm737wzd01DMAADMAADMyDAYTltoTl2XfTncvvpqvbap92EdQwAAMwAAMwAAMTMzA/YXnPm+m9y5+kO2Z74+w8VHzvbmsHheWZ65+lw9ufpceuvrAbB9pDL6ab79xMjzvoz117O928dmGlPj7+ygfprXfeTlcemiErbv97HFG2EgeMHfzDAAzAwGYZmJmwfDm9cfnjdOOezQ7KutBdvbi7favepyc+2hlhKWIwFpDPpJcCwZndRxGor7+YziHCEGEwAAMwAAMwsFEG5icsL72ZLu4oFAjLCQV/ZrVSxeNKq5bi65VnNnogab8IJ2RgR49z5pg5hgEYgIE8AzMRlrJS2X/8vXwUfvHlVjA0j5Y/SXes8NS8y5+k5eNyzWvs+n6XNv6CpnW0D5feTFcf/njp8+LDH/cezS/7dvmT9N7DT/cETd925B1L367ua9O/p9ONS+2YSL97fu0Y+H0ZS+uK5YPvp8dut4/G5fH4+SccRK48+wj9iY+ax+tLH6Ze6ZG7CMe3SmJwRHj2DnqEZY/B3tiM8UA5YwcDMAADMLACAzMRlipqXk5vFEVTXC6iqy8axe7j9J59rN68uxkIPRF3vs2F4Ov7PJ1WW7EUURu0t5i8Rii6dnN57136ON0xovPqxaGgrRYTIiyvf5Qeu/1ROrME6YV09lYgLpfl7fw072hefy08AKXs/HURmZ3fM9c/TWcf1Lm14YV05fUP0ktP2jwfl8fhYzaLOgjLcE6qmXDzTD3PImmYgAEYgAFlYH+FpRWVRsz1xWIsVHXwfDidsMy360VyIzaNqGz7lK/v+zxINyuMnfjryl9L540o7PLtwfRaOn/r/XRXIEQa0ZkpG/oS0Tj2oU0rPuN3MG2fTqeDJ2+WVz+D/g775HxSB7EKAzAAAzAAAwMG9ldYutVAERJetB3IKuZAtOUFxmTC8uy7g0foS6Hj+jTocwP50YRl7hF1f4WxXcWUR9y9LSMemxVL/zg9e0BOJyzbr8GHX5YvxzPbh/w8U5exgQEYgAEYgIGYAYSlERYDkeZE3BhE+yMsW1E5FKDlFcvBe5pm7PtjWy8sy4/LF9CzYjm4o+yPd3xywIZxgQEYgAEYWJWBvRCW8s5hzSPugbA8VX4P0g/2ZMJS2g1WVKU930efbvuUr+/7PEjLo/Bw1dE8CpcPcMJ3KacSlrXvWI49Ll+cEHjHEmGZvYnhojE4BzBWHC8wAANHYOCECcv2S+lORPa/nO5OoLHwikSa5A0+3jm18Osek4tt7yvw5oMgL2r1QlYWrQNfMsnizwnOqM8HBWHajYH2w4Xy8c6tT5249B/vGJGp8OnX36EoPZ1WexR+OvFVuJsXHWdCTvgwAAMwAAM7zMA8hOVCoNmf8dF4T8jJQDtbEZmNONSf/un9hI/+oHknQMXvwGevTvcTP0OR1vdzx38g5Pqm+9CG2pdOUMhKa9/GfkXu2lKR2+urte/8DvvdljUf2Og/76hQXLxDOXiMbX42qHnHshGUIjjlncvu4x/12XsPU2wyAnTZt5GfE+J3LMfnczmWO3wCoo/MIwzAAAycLAbmISy5MO7l3Rn/vHOyTjZcPJhPGIABGDj5DCAsEa27K1ozq5YrrVYu5pf/Cj/5JzMuWMwxDMAADGyfAYQlwnJ3hSVzw9zAAAzAAAzAwKwYQFgC7KyA5W50+3ejzAFzAAMwAAMwkGMAYYmwRFjCAAzAAAzAAAzAwCQMICwBaRKQcncu5HNXCwMwAAMwAAP7wwDCEmGJsIQBGIABGIABGICBSRhAWALSJCBxN7o/d6PMNXMNAzAAAzCQY2DnheWX7/vL9O8/92eIHwQwDMAADMAADMAADOw4AwjLHZ+g3B0B+dwtwgAMwAAMwAAM7BoDCEuEJXd/MAADMAADMAADMDAJAwhLQJoEpF27Y6I/3MXDAAzAAAzAwPEzgLBEWCIsYQAGYAAGYAAGYGASBhCWcwfpue+lP/7mymL7UfrVd4/r7uS1dP72Z+lwsT129YVJgFzr7jLzn+Jr+TpWHp5JL71zMz1+rG0eFx+0s/v8MUfMEQzAwPQMICxPzEX9y+lXvz5OYdnBeNfVT9M2heXjr3yQbl67sD1hewSGzl17e7Z954TcHQOMBWMBAzAAAy0DCMsjiILdgmhPheVsVyv1JMyq5W4dRzovhMwLDMAADKzDwF4Ly1dv6SPkNvz99fvTr379vfSqE5s/u/4j87j5Svr99S+b1bH7053mUXS7Wtjzeet+Y9cB2vcn9e5Pd359If3MtXvQe8x9Jf0x46+d+DFhKeV+f+1+dP1bFaTxFcv+Y/PD2x+lM35fJf3g++kx83j9/BOnk/huHrdffy0cS1nxe+uVZ1zZanPSm7NmLi0Dxtd1fe1Ays14DuZF63Tjfee5/PhWr7g+eTO99c4H6S0en7v5zo/tqixjz1jCAAzAwNEY2FthKWKiLxBPp1ZgWFGxyHPCobEb5P0o/f7X1mcrPLygaERlr+5ChDhh2dhV5HUHQElYxn2J9qPzVw9WUVg2YvHTdPZB4y+bZwXnC+nsrc/SY7c+TSIw435dSFde/yC99GRc/uqtujkZ+P7uhfT73/RfK+ixsRD8LT9+bGU++3UPFiLU86btNuL49RfTuUhs2zyEZYaDeP51fAkZHxiAARg4Pgb2U1g+972BqAyhE4HRE4HdxIhosR/KiPAYCIegvgjGgZ0VD008s4J56nSS+l6stn0vCMvC/v7s+vd6+xGOw6B/3TiIfUlYnrnuRKX6EnFpViFju1Zc5oWlPEZ+O115qN+fV//5/1us7Mnq3u5tf/uD/6MvkBrByEc867BHnT77jAfjAQMwsG0G9lJY5sVZH8iinRNrXmg2ExsIS8lvV7+6x6QDoel89yDJ+GxXxfpiV+vJfnRfjnftal4sVPtjob6iMC8sX0vnb72f7lIx2QtFNOoKZd5OfK8qLLWP1XPiXzlYfGVvx6XnS+bArCZbTvzc6hi3YTw/BwjLvtDucVLPoc47IWMGAzAAA9tjAGFZuIhZwTCA1Im/nvBQn1kR2J/wRozYlVHnu9d21md+xVL2YyBetY8ThLMWlo2o7L/+IOPt5743vyPC0grS3tzlxlqEZc2j8Fx98hGmMAADMAADO8LAXgrL5qMYK+Ryk5EVcbLq2F998ulGUBTq9wWHvJdnxc3Ej8KdEOq33Re565TlheXpFD/iXnyoc+RH4ePvWNrXFaI5CeftCMKymi3DXPwB0nBe5CMfebQ/159WWoct6gw5YEwYExiAgV1mYD+FZe5jChFgv7nSe4dRVhMHK1CyyuWEaShQBsIy+rDjdIrESLjKWBSI+RVLAVD8+T7rRyWD/RPRs/xQZPgOowe6JCybL70Hj8PlMbh791LeuXR2Z66PfbxzOpVEWc2cDMe5/RhHHl3bcen5cvMwXN0M3rc9lZn7U6dT1Vfhzc8qfRB8Ac8J1vNIGiZgAAZgYHsM7KmwbAd8+D6cXTXUSemExvJ9OfN+3UEjGLr3FvWRcyPk9B9xlvYiLjrb2J+2O3wX84+9VU2xy/gL3hGUg6zXp4zN8mAcEZYi+vRfdwahWYls/D3x0cA2fG/S2cmPrpffsTydDsLfseyPS3lOhuMsglLH6vfXH+nNWeNrcQOi89HZdj/fNGSrv8K9HOdTdb9j2QhofmaIR11mpbtjqDtnkMdYwAAMbJuBvRaW2x582h8/AYwKy9oVvx29IItgHH+0XX7kD0fjHDFGjBEMwAAMHA8DCMsdFRwcAHIAyA+r65fjhQMiXLUs2O/MnNetVsLCHOaSPsIpDMAADAgDCMudERkA2QpJ+4jdvYfJXPEoGAZgAAZgAAZ2mgGEJYDuNKDcAXPDAQMwAAMwAAPzYQBhibBEWMIADMAADMAADMDAJAwgLAFpEpC4m5zP3SRzxVzBAAzAAAxsigGEJcISYQkDMAADMAADMAADkzCAsASkSUDa1J0PfrmrhgEYgAEYgIH5MLDzwhKY5gMTc8VcwQAMwAAMwMB+M4CwZMWSFUsYgAEYgAEYgAEYmIQBhCUgTQISd6j7fYfK/DP/MAADMAADwgDCEmGJsIQBGIABGIABGICBSRhAWALSJCBxp8qdKgzAAAzAAAzAwIyE5YV05fUP0luvv5jOIQYRgzAAAzAAAzAAAzCwcwzMSFi2dwHnrr2dXnqSOwLuCmEABmAABmAABmBg1xiYpbC8ee3Czin0XZtY+sPJBgZgAAZgAAZg4LgZQFiyjI5IhwEYgAEYgAEYgIFJGEBYAtIkIB33HRHtcRcOAzAAAzAAA7vHwOyE5cGTNxOPwncPJA5u5gQGYAAGYAAGYGB+wvLU6fT4K3wdzsHLwQsDMAADMAADMLBrDMxPWLJiyaNrXl+AARiAARiAARjYSQZmJyzl54Z4FM4d2q7dodEfmIQBGIABGICBGf6lI8KSA5cDFwZgAAZgAAZgYDcZYMWSpfSdXErnhLGbJwzmhXmBARiAARgoMTA7YSkf7vDPO0Bdgpoy+IABGIABGICB7TAwI2HJf4VzkGznIGHcGXcYgAEYgAEYqGNgRsKyboeYeMYJBmAABmAABmAABrbDAMKSdyx5xxIGYAAGYAAGYAAGJmEAYQlIk4DEneF27gwZd8YdBmAABmBglxhAWCIsEZYwAAMwAAMwAAMwMAkDCEtAmgSkXbpboi/cvcMADMAADMDAdhhAWCIsEZYwAAMwAAMwAAMwMAkDCEtAmgQk7gy3c2fIuDPuMAADMAADu8QAwhJhibCEARiAARiAARiAgUkYQFgC0iQg7dLdEn3h7h0GYAAGYAAGtsMAwhJhibCEARiAARiAARiAgUkYQFgC0iQgcWe4nTtDxp1xhwEYgAEY2CUGdl5Y3nX103R4+7N0eP21HRFA7X+Wv/SkA/mhF9PN119M5xCqOzJPbn6YF+YFBmAABmAABjbOwM4Ly0aFP/h+emxXhOWTN9NbGQH5+CsfpIHgBOKNQ7xLd2r0BUEPAzAAAzCwzwwgLFcSfpnVSvXBqiUiUlkghAUYgAEYgIE9ZGBmwvK1dF4eiy+2x66+4KDtl2cfocsKaM+HqVdaGRXh+M7N9HgWlBHhma3H3d0+392x7/APAzAAAzBwUhiYkbD8KJ2//Wk6+2AH35nrn6WhuOzKZZKadzRvvZ/uCkSdlD12/aP0mPEreeef6PvQyT537e301ivPODHbt5XH4WM26o+wP3aMB+MBAzAAAzAAA/NmYD7C0oi/DroX0tlbfbHZlenEiM1H6UxGWB7ejsuGfk4nEY03r10oCstGfGbewYx8kqfzRAgLMAADMAADMDB3BuYjLDOPqP0Ko6xi6qPyLozFY7NiOXicnocaYZkfm7kfCPSfuYUBGIABGICBozNwooRlIyoHArS8Yjn2KN1CVi0sRx6XW5/Ejw4xY8gYwgAMwAAMwMBuMDAfYRk+sraPwl9L58N3KacTlrXvWI49Lgf+3YCfeWAeYAAGYAAGYGBaBuYjLG99mh5z4rL/8Y4VmYtBWn79Pc2j8AO+Ci++X8rBOe3ByXgynjAAAzAAA3NjYOeFpbwHufzZoKVQbN+jHD7GNj8b1PyckAhKEZxi333ks/RpfrqofR8zFqDdpI78nBC/Y4nwDD4S6/jhBMlYwAAMwAAMnGwGdl5Y7hyA/PMO4hHxCAMwAAMwAAMwEDKAsFwZjMyqJauVIWA7d2Ow8nyf7DtL5of5hQEYgAEYmJIBhCVCA0EIAzAAAzAAAzAAA5MwgLAEpElAmvJuB1/cPcMADMAADMDAPBlAWCIsEZYwAAMwAAMwAAMwMAkDCEtAmgQk7izneWfJvDFvMAADMAADUzKAsERYIixhAAZgAAZgAAZgYBIGEJaANAlIU97t4Iu7ZxiAARiAARiYJwOTC8tv/M2lNLYByzxhYd6YNxiAARiAARiHJ/4sAAAMK0lEQVSAgRIDCEtWLFmxhAEYgAEYgAEYgIFJGEBYAtIkIJXuXijj7hYGYAAGYAAG9oMBhCXCEmEJAzAAAzAAAzAAA5MwgLAEpElA4k50P+5EmWfmGQZgAAZgoMTABoXlP6Qb73yQ3vqnfxh8zFPqEGUACwMwAAMwAAMwAAPzZGCDwrL9Ovy5f/q39OJP+l+KA8s8YWHemDcYgAEYgAEYgIESA8cgLD9IN36BsCxNAmUcpDAAAzAAAzAAAyeBAYQl71jyjiUMwAAMwAAMwAAMTMIAwhKQJgHpJNxlsQ+sFsAADMAADMDA0RjYuLB88vq/8Sgc8Yp4hQEYgAEYgAEY2AMGNi4sv/E3f59e/O/9r8O5Gzja3QDjx/jBAAzAAAzAAAzsIgMbF5asWAL+LoJPn+ASBmAABmAABqZnYOPC8rl/4qtwwJ0eXMaUMYUBGIABGICB3WMAYbkH7ztw4O3egcecMCcwAAMwAAMnkQGEJcKSl6lhAAZgAAZgAAZgYBIGNiws5cMd/nnnJN6RsE/cacMADMAADMAADHgGNigs+a9wP9ikOQBhAAZgAAZgAAZOMgMbFJb9v3H8xt906ZM8oOwbJwwYgAEYgAEYgIF9ZQBhyTsVk7xTsa8HEPvNxQMGYAAGYAAGOgYQlghLhCUMwAAMwAAMwAAMTMIAwhKQJgGJu7Xubo2xYCxgAAZgAAb2lQGEJcISYQkDMAADMAADMAADkzCAsASkSUDa1zsz9ptVCRiAARiAARjoGJhcWDK43eAyFowFDMAADMAADMDAPjGAsGTFkhVLGIABGIABGIABGJiEAYQlIE0C0j7djbGvrD7AAAzAAAzAQMwAwhJhibCEARiAARiAARiAgUkYQFgC0iQgcecW37kxLowLDMAADMDAPjGAsERYIixhAAZgAAZgAAZgYBIGEJaANAlI+3Q3xr6y+gADMAADMAADMQMIS4QlwhIGYAAGYAAGYAAGJmEAYQlIk4DEnVt858a4MC4wAAMwAAP7xADCEmGJsIQBGIABGIABGICBSRhAWALSJCDt090Y+8rqAwzAAAzAAAzEDCAsEZYISxiAARiAARiAARiYhAGEJSBNAhJ3bvGdG+PCuMAADMAADOwTAwhLhCXCEgZgAAZgAAZgAAYmYQBhCUiTgLRPd2PsK6sPMAADMAADMBAzgLBEWCIsYQAGYAAGYAAGYGASBhCWgDQJSNy5xXdujAvjAgMwAAMwsE8MICwRlghLGIABGIABGIABGJiEAYQlIE0C0j7djbGvrD7AAAzAAAzAQMwAwhJhibCEARiAARiAARiAgUkYQFgC0iQgcecW37kxLowLDMAADMDAPjGAsERYIixhAAZgAAZgAAZgYBIGEJaANAlI+3Q3xr6y+gADMAADMAADMQMIS4QlwhIGYAAGYAAGYAAGJmEAYQlIk4DEnVt858a4MC4wAAMwAAP7xADCEmGJsIQBGIABGIABGICBSRhAWALSJCDt090Y+8rqAwzAAAzAAAzEDCAsEZYISxiAARiAARiAARiYhAGEJSBNAhJ3bvGdG+PCuMAADMAADOwTAwjLEWH5s+s/Sn/8zZXF9r306oj9ZPA88VE6vP3ZYvs0nX1wiwfmkzfTW6+/mM4d174fdzsPvZhunuT9O+7xpD1u1mAABmBgbxlAWFbDf3+685tjFJbLfr2Qzt7aprC8kK68/kF66cktCtvlWGyuD4+/cvL3cbKbnmOYD/q6OdYZW8YWBmBgkwwgLKsvknsqLE/6aqXOP6uWe3t3vckTLL65gMMADOwbAxsUll9Ov/q1PkJuwzvP3Z/u/PpC+plezJtQBJu1c6uCz32vfQzd1Ovb3nkuAta1K/We+176/fUvuwuns/vNj9Kvvhv507wxYdnvmzw+j/un/mrDihXL3mPzz9Lh9dfcvrZtnbmuj9Y/S4e33k93nXotnW8et+dXRGUl7+a1C0N/X3gk/e7pZ9MfzPa7B+4d2p36evrQ2DT2j359h+x0HupXZs9dezu99c4HJ/v1gN4xqmNEuG8XCPYX5mEABlZlYEPCshVtfWG1EHJWWH73Qvq9F3RR3ikRpD/q2zZ2ToSeCtpdCNO+sGxFYL9/UZ4FqiQspcwL07Yv/Xatv9p4WVjedfXThUjs/EV5Iiofu/pCJ+hEjN76ND3WCMyubh+gZ9JL77ydrjyUK+/n33j02fSHUDT27S4/8FT6w+Ej6fKIeDluOxHRb73yTDdGmf4hLPvz2WeGMsYDBmAABvaZgY0IS/ngpS/aYsheveXF2MJOROOt+80FPhJup9OwHRFzGZ9GJAzraf+iFVVTlnnHMu/vdHr1lhe/6q82LAnL19L5jDAUcXn+iUUbD76fHotWMRtxKSuXmb7I4+F3bqbHc+WD/K+nDysE48Gpe9Ptw++kG4P6vh/Ha9cIRj7iMcednw/S+3yxYN/hHwZgoIaBjQjLrGDsCYmSiBOBaAVZbBsLunblsfuS2wtN77sPSr7v+RXLV2/ZR/k+7tvvtzc+SQVh+cRH/VVIO75GTPZEprWRR+EZYdr0qygsRfT1H4U3j7kDYdmsZPrH4U8PheW27HQOEJarsom9skMICzAAAzDQMnAChaWHuxWa3QrqZoRl59+3f9T0LgrLVlQO36kcrljGj8eHK5HbsrMngkZYVjwKt3WIH5Vv6sMQDMAADJwkBjYiLGUlsebdwuzqYPQo3L6buVh1i1csA0DlPUvzaD1fL14ZbSc8v2J54PxPC0hBWBZWHHurlGb1ste3sUfhpzLvWMqHO+G7lF5Y+rTOjReW27LT/rRh9kOl3ipv+5GPfLxz0n+CqcdKbwz644Yd4wEDMAADMKAMbERYHsjHNtFX0c2HNObRsAjIgWCM3pOMBd9AIIr/gT95z9F/oR2LxKGdBSWuowMpdYdiWuqY/V1enDtxMv6xSElYnk4iIHsf5UgbIiTdI275eGf5zuXSZuzjndMpFlvypbd7lP3V77RfiPcehYuAfCrd/oIZx+XX5Lb+tuxMv05VfhUuP7/0TuZL+eX8Wr/E9RghhAUYgAEYOPkMbEhYysCJQHTvGwair1nt6/3ckBOBjRhVPyrS+r6Xgq5nq3UiwXc6HTRflXc28k7m0o8KhMAm/+5mK2C7cvGt/fUgjQlL/Rkg8/NAy3/hcQLx1OnU+xmhxu6jdEb3YRmKQLX+xGbkHUupm/sdy6VAXLxn2QhK/WkhKxo1T9/HlDIRkpK2onNbdou5qfwdy+bLcT7w4QOf5XHlj23SCAcYgIH9ZmCDwnK/B3YeB1aFsKxdyZv5hVYE4/ij7cyrATPf93mwyvmEeYIBGICBOTCAsNxjURA+Ro/GI7dqGdnOMa9ytXIOBzR95MIDAzAAAzCwTQYQlnMUQmv2WYTkoXmknvuHnm0CSducEGEABmAABmBgvgwgLNcUaUA/X+iZO+YOBmAABmAABjbDAMISYcmHGDAAAzAAAzAAAzAwCQMIS0CaBCTu/DZz58e4Mq4wAAMwAANzYgBhibBEWMIADMAADMAADMDAJAwgLAFpEpDmdDdFX7n7hwEYgAEYgIHNMICwRFgiLGEABmAABmAABmBgEgYQloA0CUjc+W3mzo9xZVxhAAZgAAbmxADCEmGJsIQBGIABGIABGICBSRhAWALSJCDN6W6KvnL3DwMwAAMwAAObYQBhibBEWMIADMAADMAADMDAJAwgLAFpEpC489vMnR/jyrjCAAzAAAzMiQGEJcISYQkDMAADMAADMAADkzCAsASkSUCa090UfeXuHwZgAAZgAAY2wwDCEmGJsIQBGIABGIABGICBSRhAWALSJCBx57eZOz/GlXGFARiAARiYEwMIS4QlwhIGYAAGYAAGYAAGJmEAYQlIk4A0p7sp+srdPwzAAAzAAAxshgGEJcISYQkDMAADMAADMAADkzCAsASkSUDizm8zd36MK+MKAzAAAzAwJwYQlghLhCUMwAAMwAAMwAAMTMIAwhKQJgFpTndT9JW7fxiAARiAARjYDAMIS4QlwhIGYAAGYAAGYAAGJmEAYQlIk4DEnd9m7vwYV8YVBmAABmBgTgwgLBGWCEsYgAEYgAEYgAEYmIQBhCUgTQLSnO6m6Ct3/zAAAzAAAzCwGQYQlghLhCUMwAAMwAAMwAAMTMLA/w+zia0lHac5ZwAAAABJRU5ErkJggg==;" vertex="1" parent="1">
                    <mxGeometry x="80" y="200" width="604.83" height="402" as="geometry"/>
                </mxCell>
                <mxCell id="7" value="FEC(foo)" style="text;html=1;align=center;verticalAlign=middle;resizable=0;points=[];autosize=1;strokeColor=none;" vertex="1" parent="1">
                    <mxGeometry x="735" y="252" width="58" height="17" as="geometry"/>
                </mxCell>
                <mxCell id="8" value="VO:AO&lt;br&gt;scope chain：AO+GO" style="whiteSpace=wrap;html=1;" vertex="1" parent="1">
                    <mxGeometry x="749" y="285" width="213" height="72" as="geometry"/>
                </mxCell>
                <mxCell id="9" value="{&lt;br&gt;m:undefined&lt;br&gt;n:undefined&lt;br&gt;bar:0xb00&lt;br&gt;}" style="rounded=1;whiteSpace=wrap;html=1;" vertex="1" parent="1">
                    <mxGeometry x="1202" y="273" width="136" height="82" as="geometry"/>
                </mxCell>
                <mxCell id="10" value="开始执行代码" style="whiteSpace=wrap;html=1;" vertex="1" parent="1">
                    <mxGeometry x="749" y="359" width="212" height="63" as="geometry"/>
                </mxCell>
                <mxCell id="11" value="GEC" style="text;html=1;align=center;verticalAlign=middle;resizable=0;points=[];autosize=1;strokeColor=none;" vertex="1" parent="1">
                    <mxGeometry x="837" y="449" width="36" height="17" as="geometry"/>
                </mxCell>
                <mxCell id="12" value="VO：GO" style="whiteSpace=wrap;html=1;" vertex="1" parent="1">
                    <mxGeometry x="749" y="482" width="213" height="47" as="geometry"/>
                </mxCell>
                <mxCell id="13" value="开始执行代码" style="whiteSpace=wrap;html=1;" vertex="1" parent="1">
                    <mxGeometry x="749" y="529" width="213" height="42" as="geometry"/>
                </mxCell>
                <mxCell id="14" value="AO（foo）" style="text;html=1;align=center;verticalAlign=middle;resizable=0;points=[];autosize=1;strokeColor=none;" vertex="1" parent="1">
                    <mxGeometry x="1202" y="254" width="68" height="17" as="geometry"/>
                </mxCell>
                <mxCell id="15" value="{&lt;br&gt;name:'hxh'&lt;br&gt;foo:0xa00&lt;br&gt;}" style="rounded=1;whiteSpace=wrap;html=1;" vertex="1" parent="1">
                    <mxGeometry x="1385" y="273" width="121" height="81" as="geometry"/>
                </mxCell>
                <mxCell id="16" value="[[scope]]:parent scope&lt;br&gt;函数执行体（代码块）" style="rounded=1;whiteSpace=wrap;html=1;" vertex="1" parent="1">
                    <mxGeometry x="1202" y="443" width="152" height="60" as="geometry"/>
                </mxCell>
                <mxCell id="17" value="函数存储空间bar 0xb00" style="text;html=1;align=center;verticalAlign=middle;resizable=0;points=[];autosize=1;strokeColor=none;" vertex="1" parent="1">
                    <mxGeometry x="1202" y="422" width="135" height="17" as="geometry"/>
                </mxCell>
                <mxCell id="18" value="&lt;span&gt;[[scope]]:parent scope&lt;/span&gt;&lt;br&gt;&lt;span&gt;函数执行体（代码块）&lt;/span&gt;" style="rounded=1;whiteSpace=wrap;html=1;" vertex="1" parent="1">
                    <mxGeometry x="1385" y="443" width="185" height="63" as="geometry"/>
                </mxCell>
                <mxCell id="19" value="函数存储空间foo 0xa00" style="text;html=1;align=center;verticalAlign=middle;resizable=0;points=[];autosize=1;strokeColor=none;" vertex="1" parent="1">
                    <mxGeometry x="1384" y="422" width="135" height="17" as="geometry"/>
                </mxCell>
                <mxCell id="20" value="GO" style="text;html=1;align=center;verticalAlign=middle;resizable=0;points=[];autosize=1;strokeColor=none;" vertex="1" parent="1">
                    <mxGeometry x="1389" y="252" width="28" height="17" as="geometry"/>
                </mxCell>
                <mxCell id="21" value="VO:AO&lt;br&gt;scope chain：AO+GO" style="whiteSpace=wrap;html=1;" vertex="1" parent="1">
                    <mxGeometry x="748" y="104" width="213" height="72" as="geometry"/>
                </mxCell>
                <mxCell id="22" value="开始执行代码" style="whiteSpace=wrap;html=1;" vertex="1" parent="1">
                    <mxGeometry x="748" y="178" width="212" height="63" as="geometry"/>
                </mxCell>
                <mxCell id="23" value="FEC(bar)" style="text;html=1;align=center;verticalAlign=middle;resizable=0;points=[];autosize=1;strokeColor=none;" vertex="1" parent="1">
                    <mxGeometry x="745" y="82" width="59" height="17" as="geometry"/>
                </mxCell>
                <mxCell id="24" value="{&lt;br&gt;}" style="rounded=1;whiteSpace=wrap;html=1;" vertex="1" parent="1">
                    <mxGeometry x="1048" y="275" width="136" height="82" as="geometry"/>
                </mxCell>
                <mxCell id="25" value="AO（bar）" style="text;html=1;align=center;verticalAlign=middle;resizable=0;points=[];autosize=1;strokeColor=none;" vertex="1" parent="1">
                    <mxGeometry x="1048" y="256" width="68" height="17" as="geometry"/>
                </mxCell>
            </root>
        </mxGraphModel>
    </diagram>
</mxfile>